 <svg
              width="340"
              height="117"
              viewBox="0 0 333 117"
              fill="none"
              xmlns="http://www.w3.org/2000/svg"
              id='gitcoin'
            >
              <style>
    #gitcoin {
      <!-- margin-left: -12px; -->
    }
  </style>
              <path
                d="M124.569 61.3464H139.852C139.852 62.9064 139.774 64.3494 139.656 65.6364C139.539 66.9234 139.265 68.0934 138.875 69.1854C138.327 70.7454 137.585 72.1104 136.647 73.3194C135.709 74.4894 134.575 75.5034 133.324 76.2834C132.074 77.0634 130.666 77.6874 129.142 78.0774C127.618 78.5064 126.015 78.7014 124.334 78.7014C122.028 78.7014 119.918 78.3114 118.002 77.5704C116.126 76.8294 114.485 75.7374 113.117 74.4114C111.749 73.0074 110.693 71.3694 109.951 69.4584C109.208 67.5084 108.817 65.4024 108.817 63.0624C108.817 60.7614 109.169 58.6554 109.911 56.7444C110.654 54.7944 111.749 53.1564 113.077 51.7914C114.485 50.4264 116.126 49.3734 118.081 48.6324C120.035 47.8914 122.185 47.5014 124.569 47.5014C127.657 47.5014 130.354 48.1644 132.699 49.4904C135.044 50.8164 136.881 52.8834 138.249 55.6914L130.94 58.6944C130.276 57.0564 129.377 55.9254 128.282 55.2234C127.227 54.5214 125.976 54.1704 124.608 54.1704C123.474 54.1704 122.419 54.4044 121.481 54.8334C120.543 55.2624 119.722 55.8474 119.058 56.6664C118.393 57.4464 117.885 58.4214 117.494 59.5134C117.142 60.6444 116.947 61.8924 116.947 63.2574C116.947 64.5054 117.103 65.6754 117.416 66.7284C117.768 67.7814 118.237 68.7174 118.901 69.4974C119.566 70.2774 120.387 70.9014 121.325 71.3304C122.302 71.7594 123.435 71.9544 124.686 71.9544C125.429 71.9544 126.171 71.8764 126.875 71.7204C127.579 71.5254 128.204 71.2524 128.751 70.9014C129.337 70.5114 129.807 70.0044 130.158 69.4194C130.51 68.8344 130.784 68.0934 130.901 67.2354H124.569V61.3464ZM177.844 54.5214V78.7014H169.636V54.5214H162.991V47.5014H184.489V54.5214H177.844ZM213.022 58.1874C211.224 56.0034 209.035 54.9114 206.416 54.9114C205.244 54.9114 204.188 55.1064 203.172 55.5354C202.195 55.9644 201.374 56.5494 200.631 57.2514C199.928 57.9534 199.342 58.8114 198.951 59.8254C198.56 60.8394 198.364 61.8924 198.364 63.0624C198.364 64.2324 198.56 65.3244 198.951 66.3384C199.381 67.3524 199.928 68.2104 200.631 68.9514C201.374 69.6924 202.234 70.2774 203.211 70.6674C204.188 71.0964 205.244 71.2914 206.377 71.2914C208.84 71.2914 211.067 70.2384 213.022 68.1324V77.2584L212.24 77.5314C211.067 77.9604 209.973 78.2334 208.918 78.4284C207.901 78.6234 206.885 78.7404 205.869 78.7404C203.836 78.7404 201.843 78.3504 199.967 77.6094C198.091 76.8294 196.449 75.7374 195.003 74.3334C193.596 72.9294 192.423 71.2524 191.563 69.3414C190.703 67.3914 190.273 65.2854 190.273 63.0234C190.273 60.7614 190.703 58.6554 191.524 56.7834C192.384 54.8724 193.518 53.2344 194.964 51.8694C196.41 50.4654 198.091 49.4124 199.967 48.6324C201.843 47.8524 203.836 47.4624 205.908 47.4624C207.081 47.4624 208.253 47.5794 209.387 47.8524C210.559 48.0864 211.771 48.4764 213.022 48.9834V58.1874ZM229.125 63.1014C229.125 64.2714 229.36 65.3634 229.79 66.3774C230.22 67.3914 230.845 68.2494 231.588 68.9904C232.331 69.7314 233.23 70.3164 234.246 70.7064C235.262 71.0964 236.356 71.2914 237.49 71.2914C238.624 71.2914 239.679 71.0964 240.695 70.7064C241.711 70.2774 242.61 69.6924 243.392 68.9904C244.174 68.2494 244.799 67.3914 245.229 66.3774C245.659 65.3634 245.894 64.3104 245.894 63.1014C245.894 61.8924 245.659 60.8394 245.229 59.8254C244.799 58.8114 244.174 57.9534 243.392 57.2124C242.649 56.4714 241.75 55.9254 240.695 55.5354C239.679 55.1064 238.624 54.9114 237.49 54.9114C236.356 54.9114 235.301 55.1064 234.246 55.5354C233.23 55.9254 232.37 56.5104 231.588 57.2124C230.845 57.9534 230.22 58.8114 229.79 59.8254C229.36 60.8394 229.125 61.9314 229.125 63.1014ZM221.074 63.1014C221.074 60.9174 221.465 58.8504 222.285 56.9784C223.106 55.0674 224.24 53.3904 225.686 51.9864C227.132 50.5824 228.852 49.4514 230.845 48.6714C232.878 47.8524 235.106 47.4624 237.49 47.4624C239.874 47.4624 242.102 47.8524 244.096 48.6714C246.128 49.4514 247.848 50.5434 249.294 51.9864C250.779 53.3904 251.913 55.0674 252.734 56.9784C253.555 58.8504 253.945 60.9174 253.945 63.1014C253.945 65.2854 253.555 67.3524 252.734 69.2634C251.913 71.1354 250.779 72.8124 249.294 74.2164C247.848 75.6204 246.128 76.7514 244.096 77.5704C242.063 78.3504 239.874 78.7404 237.49 78.7404C235.067 78.7404 232.839 78.3504 230.845 77.5704C228.852 76.7514 227.132 75.6594 225.686 74.2164C224.24 72.8124 223.106 71.1354 222.285 69.2634C221.465 67.3524 221.074 65.3244 221.074 63.1014ZM270.088 47.5014V78.7014H261.88V47.5014H270.088ZM155.174 47.5014V78.7014H146.966V47.5014H155.174ZM278.687 78.7014V47.5014H286.505L301.748 66.5724V47.5014H309.957V78.7014H302.061L286.895 59.6304V78.7014H278.687Z"
                fill="#E6E6E6"
              />
              <path
                fill-rule="evenodd"
                clip-rule="evenodd"
                d="M77.3652 49.31C80.0841 53.1125 81.56 57.7301 81.5213 62.3863C81.5213 66.9649 80.0454 71.5435 77.3652 75.2684L83.0359 79.5752C86.6479 74.6085 88.6288 68.5557 88.6288 62.4249C88.6679 55.9451 86.5314 49.5818 82.6087 44.46L79.3567 47.385L77.3652 49.31Z"
                fill="#15EBB7"
              />
              <path
                fill-rule="evenodd"
                clip-rule="evenodd"
                d="M88.0851 83.3901L69.0148 68.9172C70.3742 67.1321 71.1508 64.9595 71.2673 62.7088C71.3451 60.4585 70.7627 58.2468 69.5585 56.3455L78.6859 48.1196L88.2407 39.1953C88.8621 38.6131 88.9008 37.6043 88.2794 36.9835L86.959 35.6642C80.1619 28.7964 70.9957 24.7998 61.3632 24.4894L61.4023 19.2512C61.441 18.902 61.4023 18.5528 61.3245 18.2036C61.208 17.8544 61.0524 17.5439 60.8195 17.2723C60.5865 17.0007 60.3145 16.8067 59.965 16.6515C59.6543 16.4963 59.3049 16.4187 58.955 16.4187C58.6056 16.4187 58.2562 16.4963 57.9454 16.6515C57.6347 16.8067 57.324 17.0007 57.091 17.2723C56.8577 17.5439 56.6634 17.8544 56.586 18.1648C56.4695 18.514 56.4304 18.8632 56.5082 19.2124L56.4695 24.6058C54.1779 24.8386 51.8862 25.2654 49.6724 25.9251L49.7111 19.2124C49.7502 18.8632 49.7111 18.514 49.6337 18.1648C49.5172 17.8156 49.3616 17.5051 49.1287 17.2335C48.8957 16.9619 48.6237 16.7679 48.2743 16.6127C47.9635 16.4575 47.6137 16.3799 47.2642 16.3799C46.9148 16.3799 46.565 16.4575 46.2546 16.6127C45.9439 16.7679 45.6332 16.9619 45.3998 17.2335C45.1669 17.5051 44.9726 17.8156 44.8952 18.126C44.7783 18.4752 44.7397 18.8244 44.8174 19.1736L44.701 27.7487C36.8552 31.2408 30.4077 37.3327 26.4849 44.9766C22.562 52.6206 21.3191 61.3898 23.0281 69.8095C24.7371 78.2296 29.2814 85.8346 35.8842 91.3445C42.4871 96.854 50.7989 99.9584 59.3823 100.114L87.1529 100.23C88.0077 100.23 88.7066 99.5314 88.7066 98.6777V84.6704C88.7066 84.1662 88.4736 83.7005 88.0851 83.3901ZM59.9263 93.362C53.0905 93.3234 46.4485 91.0341 41.0499 86.8821C35.6511 82.6916 31.7671 76.8326 30.0193 70.2362C28.2715 63.6401 28.7765 56.617 31.3787 50.3313C34.0198 44.0453 38.6418 38.7683 44.5845 35.3538L44.5454 45.5585C44.5067 45.908 44.5454 46.257 44.6232 46.6061C44.7397 46.9555 44.8952 47.2659 45.1282 47.5374C45.3611 47.8092 45.6332 48.003 45.9826 48.1583C46.2933 48.3135 46.6428 48.3911 46.9926 48.3911C47.342 48.3911 47.6915 48.3135 48.0022 48.1583C48.3129 48.003 48.6237 47.8092 48.8566 47.5374C49.0896 47.2659 49.2839 46.9555 49.3616 46.6451C49.4781 46.296 49.5172 45.9466 49.4394 45.5975L49.4781 33.0645C52.8962 31.8229 56.5082 31.2408 60.1593 31.2408C66.8787 31.2408 73.4038 33.4525 78.7246 37.4879C79.1132 37.7983 79.1519 38.3415 78.8024 38.6907L64.2763 51.9997C62.9556 51.4565 61.5187 51.146 60.0815 51.146C58.4891 51.146 56.8967 51.4565 55.4208 52.116C53.9449 52.7758 52.6629 53.7458 51.6142 54.9485C50.5659 56.1513 49.7889 57.5869 49.3229 59.1005C48.8566 60.6523 48.7402 62.2431 48.9731 63.8339C49.2065 65.4251 49.7502 66.9383 50.6046 68.2963C51.459 69.6543 52.6242 70.7794 53.9449 71.6721C55.3044 72.5254 56.819 73.1077 58.4114 73.3405C60.0037 73.5734 61.6352 73.4568 63.1498 72.9911L81.7156 87.0763C81.9098 87.2316 82.0263 87.464 82.0263 87.6968L81.9872 92.6635C81.9872 93.0905 81.6378 93.4396 81.2106 93.4396L59.9263 93.362ZM64.4706 62.3207C64.4706 63.1744 64.1985 64.0281 63.7326 64.7652C63.2276 65.5027 62.5674 66.0456 61.7517 66.395C60.936 66.7441 60.0428 66.8217 59.2271 66.6279C58.4114 66.4337 57.5956 66.0456 56.9741 65.4251C56.3531 64.8042 55.9254 64.0281 55.7703 63.1744C55.6151 62.3207 55.6925 61.4284 56.0423 60.6523C56.3918 59.8376 56.9354 59.1781 57.6734 58.6734C58.4114 58.2078 59.2658 57.9363 60.1202 57.9363C61.2854 57.9363 62.4119 58.402 63.2276 59.2557C64.0043 60.0314 64.4706 61.118 64.4706 62.3207Z"
                fill="#E6E6E6"
              />
            </svg>

