 <svg
              width="333"
              height="117"
              viewBox="0 0 111 28"
              fill="none"
              xmlns="http://www.w3.org/2000/svg"
            >
              <g clip-path="url(#clip0_5_8)">
                <path
                  d="M13.6 27.18C10.9122 27.178 8.28528 26.379 6.05151 24.8841C3.81775 23.3892 2.07745 21.2654 1.05068 18.7814C0.0239117 16.2974 -0.243205 13.5647 0.283108 10.9289C0.809421 8.29311 2.10552 5.87255 4.00752 3.97336C5.90951 2.07416 8.33197 0.78162 10.9686 0.259187C13.6051 -0.263246 16.3374 0.00789142 18.8199 1.03831C21.3024 2.06873 23.4236 3.81216 24.9152 6.04812C26.4069 8.28408 27.202 10.9122 27.2 13.6C27.1921 17.2027 25.756 20.6552 23.2067 23.2008C20.6573 25.7464 17.2027 27.1774 13.6 27.18V27.18ZM13.6 2C11.3086 2.00198 9.06916 2.68315 7.16473 3.95744C5.2603 5.23172 3.77633 7.04193 2.90035 9.15932C2.02437 11.2767 1.79569 13.6062 2.24321 15.8535C2.69073 18.1009 3.79437 20.1651 5.41466 21.7854C7.03495 23.4057 9.09917 24.5093 11.3465 24.9568C13.5938 25.4043 15.9233 25.1757 18.0407 24.2997C20.1581 23.4237 21.9683 21.9397 23.2426 20.0353C24.5169 18.1309 25.198 15.8914 25.2 13.6C25.1947 10.5251 23.9709 7.57768 21.7966 5.4034C19.6223 3.22913 16.6749 2.00529 13.6 2V2Z"
                  fill="#E6E6E6"
                />
                <path
                  d="M12.82 9.89998V12.43H14.42V9.89998L16.51 11.11L17.28 9.89998L15.12 8.57998L17.28 7.25998L16.51 6.04998L14.42 7.25998V4.72998H12.82V7.25998L10.82 6.04998L10 7.25998L12.2 8.57998L10 9.89998L10.78 11.11L12.82 9.89998ZM18 17.79V20.31H19.56V17.79L21.63 19L22.41 17.8L20.25 16.47L22.41 15.19L21.63 14L19.55 15.2V12.62H18V15.18L15.9 14L15.13 15.2L17.29 16.52L15.13 17.85L15.9 19L18 17.79ZM8.13002 17.79V20.31H9.69002V17.79L11.82 19L12.59 17.8L10.43 16.47L12.55 15.19L11.82 13.95L9.69002 15.18V12.62H8.13002V15.18L6.05002 14L5.27002 15.2L7.43002 16.5L5.27002 17.83L6.05002 19L8.13002 17.79Z"
                  fill="#E6E6E6"
                />
              </g>
              <path
                d="M32.642 19L30.2557 10.2727H31.3295L33.1534 17.3807H33.2386L35.0966 10.2727H36.2898L38.1477 17.3807H38.233L40.0568 10.2727H41.1307L38.7443 19H37.6534L35.7273 12.0455H35.6591L33.733 19H32.642ZM44.446 19.1364C43.8153 19.1364 43.2713 18.9972 42.8139 18.7188C42.3594 18.4375 42.0085 18.0455 41.7614 17.5426C41.517 17.0369 41.3949 16.4489 41.3949 15.7784C41.3949 15.108 41.517 14.517 41.7614 14.0057C42.0085 13.4915 42.3523 13.0909 42.7926 12.804C43.2358 12.5142 43.7528 12.3693 44.3438 12.3693C44.6847 12.3693 45.0213 12.4261 45.3537 12.5398C45.6861 12.6534 45.9886 12.8381 46.2614 13.0938C46.5341 13.3466 46.7514 13.6818 46.9134 14.0994C47.0753 14.517 47.1562 15.0312 47.1562 15.642V16.0682H42.1108V15.1989H46.1335C46.1335 14.8295 46.0597 14.5 45.9119 14.2102C45.767 13.9205 45.5597 13.6918 45.2898 13.5241C45.0227 13.3565 44.7074 13.2727 44.3438 13.2727C43.9432 13.2727 43.5966 13.3722 43.304 13.571C43.0142 13.767 42.7912 14.0227 42.6349 14.3381C42.4787 14.6534 42.4006 14.9915 42.4006 15.3523V15.9318C42.4006 16.4261 42.4858 16.8452 42.6562 17.1889C42.8295 17.5298 43.0696 17.7898 43.3764 17.9688C43.6832 18.1449 44.0398 18.233 44.446 18.233C44.7102 18.233 44.9489 18.196 45.1619 18.1222C45.3778 18.0455 45.5639 17.9318 45.7202 17.7812C45.8764 17.6278 45.9972 17.4375 46.0824 17.2102L47.054 17.483C46.9517 17.8125 46.7798 18.1023 46.5384 18.3523C46.2969 18.5994 45.9986 18.7926 45.6435 18.9318C45.2884 19.0682 44.8892 19.1364 44.446 19.1364ZM48.8224 19V10.2727H49.8281V13.4943H49.9134C49.9872 13.3807 50.0895 13.2358 50.2202 13.0597C50.3537 12.8807 50.544 12.7216 50.7912 12.5824C51.0412 12.4403 51.3793 12.3693 51.8054 12.3693C52.3565 12.3693 52.8423 12.5071 53.2628 12.7827C53.6832 13.0582 54.0114 13.4489 54.2472 13.9545C54.483 14.4602 54.6009 15.0568 54.6009 15.7443C54.6009 16.4375 54.483 17.0384 54.2472 17.5469C54.0114 18.0526 53.6847 18.4446 53.267 18.723C52.8494 18.9986 52.3679 19.1364 51.8224 19.1364C51.402 19.1364 51.0653 19.0668 50.8125 18.9276C50.5597 18.7855 50.3651 18.625 50.2287 18.446C50.0923 18.2642 49.9872 18.1136 49.9134 17.9943H49.794V19H48.8224ZM49.8111 15.7273C49.8111 16.2216 49.8835 16.6577 50.0284 17.0355C50.1733 17.4105 50.3849 17.7045 50.6634 17.9176C50.9418 18.1278 51.2827 18.233 51.6861 18.233C52.1065 18.233 52.4574 18.1222 52.7386 17.9006C53.0227 17.6761 53.2358 17.375 53.3778 16.9972C53.5227 16.6165 53.5952 16.1932 53.5952 15.7273C53.5952 15.267 53.5241 14.8523 53.3821 14.483C53.2429 14.1108 53.0313 13.8168 52.7472 13.6009C52.4659 13.3821 52.1122 13.2727 51.6861 13.2727C51.277 13.2727 50.9332 13.3764 50.6548 13.5838C50.3764 13.7884 50.1662 14.0753 50.0241 14.4446C49.8821 14.8111 49.8111 15.2386 49.8111 15.7273ZM59.071 19.1193C58.5085 19.1193 58.0071 19.0227 57.5668 18.8295C57.1293 18.6364 56.7813 18.3679 56.5227 18.0241C56.267 17.6776 56.1278 17.2756 56.1051 16.8182H57.179C57.2017 17.0994 57.2983 17.3423 57.4688 17.5469C57.6392 17.7486 57.8622 17.9048 58.1378 18.0156C58.4134 18.1264 58.7188 18.1818 59.054 18.1818C59.429 18.1818 59.7614 18.1165 60.0511 17.9858C60.3409 17.8551 60.5682 17.6733 60.733 17.4403C60.8977 17.2074 60.9801 16.9375 60.9801 16.6307C60.9801 16.3097 60.9006 16.027 60.7415 15.7827C60.5824 15.5355 60.3494 15.3423 60.0426 15.2031C59.7358 15.0639 59.3608 14.9943 58.9176 14.9943H58.2188V14.0568H58.9176C59.2642 14.0568 59.5682 13.9943 59.8295 13.8693C60.0938 13.7443 60.2997 13.5682 60.4474 13.3409C60.598 13.1136 60.6733 12.8466 60.6733 12.5398C60.6733 12.2443 60.608 11.9872 60.4773 11.7685C60.3466 11.5497 60.1619 11.3793 59.9233 11.2571C59.6875 11.1349 59.4091 11.0739 59.0881 11.0739C58.7869 11.0739 58.5028 11.1293 58.2358 11.2401C57.9716 11.348 57.7557 11.5057 57.5881 11.7131C57.4205 11.9176 57.3295 12.1648 57.3153 12.4545H56.2926C56.3097 11.9972 56.4474 11.5966 56.706 11.2528C56.9645 10.9062 57.3026 10.6364 57.7202 10.4432C58.1406 10.25 58.6023 10.1534 59.1051 10.1534C59.6449 10.1534 60.108 10.2628 60.4943 10.4815C60.8807 10.6974 61.1776 10.983 61.3849 11.3381C61.5923 11.6932 61.696 12.0767 61.696 12.4886C61.696 12.9801 61.5668 13.3991 61.3082 13.7457C61.0526 14.0923 60.7045 14.3324 60.2642 14.4659V14.5341C60.8153 14.625 61.2457 14.8594 61.5554 15.2372C61.8651 15.6122 62.0199 16.0767 62.0199 16.6307C62.0199 17.1051 61.8906 17.5312 61.6321 17.9091C61.3764 18.2841 61.027 18.5795 60.5838 18.7955C60.1406 19.0114 59.6364 19.1193 59.071 19.1193ZM64.2433 19.0682C64.033 19.0682 63.8526 18.9929 63.7021 18.8423C63.5515 18.6918 63.4762 18.5114 63.4762 18.3011C63.4762 18.0909 63.5515 17.9105 63.7021 17.7599C63.8526 17.6094 64.033 17.5341 64.2433 17.5341C64.4535 17.5341 64.6339 17.6094 64.7844 17.7599C64.935 17.9105 65.0103 18.0909 65.0103 18.3011C65.0103 18.4403 64.9748 18.5682 64.9038 18.6847C64.8356 18.8011 64.7433 18.8949 64.6268 18.9659C64.5131 19.0341 64.3853 19.0682 64.2433 19.0682ZM71.7241 12.4545C71.6729 12.0227 71.4656 11.6875 71.1019 11.4489C70.7383 11.2102 70.2923 11.0909 69.7638 11.0909C69.3775 11.0909 69.0394 11.1534 68.7496 11.2784C68.4627 11.4034 68.2383 11.5753 68.0763 11.794C67.9173 12.0128 67.8377 12.2614 67.8377 12.5398C67.8377 12.7727 67.8931 12.973 68.0039 13.1406C68.1175 13.3054 68.2624 13.4432 68.4386 13.554C68.6147 13.6619 68.7994 13.7514 68.9925 13.8224C69.1857 13.8906 69.3633 13.946 69.5252 13.9886L70.4116 14.2273C70.6388 14.2869 70.8917 14.3693 71.1701 14.4744C71.4513 14.5795 71.7198 14.723 71.9755 14.9048C72.234 15.0838 72.4471 15.3139 72.6147 15.5952C72.7823 15.8764 72.8661 16.2216 72.8661 16.6307C72.8661 17.1023 72.7425 17.5284 72.4954 17.9091C72.2511 18.2898 71.8931 18.5923 71.4215 18.8168C70.9528 19.0412 70.3832 19.1534 69.7127 19.1534C69.0877 19.1534 68.5465 19.0526 68.0891 18.8509C67.6346 18.6491 67.2766 18.3679 67.0153 18.0071C66.7567 17.6463 66.6104 17.2273 66.5763 16.75H67.6673C67.6957 17.0795 67.8065 17.3523 67.9996 17.5682C68.1957 17.7812 68.4428 17.9403 68.7411 18.0455C69.0423 18.1477 69.3661 18.1989 69.7127 18.1989C70.1161 18.1989 70.4783 18.1335 70.7994 18.0028C71.1204 17.8693 71.3746 17.6847 71.5621 17.4489C71.7496 17.2102 71.8434 16.9318 71.8434 16.6136C71.8434 16.3239 71.7624 16.0881 71.6005 15.9062C71.4386 15.7244 71.2255 15.5767 70.9613 15.4631C70.6971 15.3494 70.4116 15.25 70.1048 15.1648L69.0309 14.858C68.3491 14.6619 67.8093 14.3821 67.4116 14.0185C67.0138 13.6548 66.815 13.179 66.815 12.5909C66.815 12.1023 66.9471 11.6761 67.2113 11.3125C67.4783 10.946 67.8363 10.6619 68.2852 10.4602C68.7369 10.2557 69.2411 10.1534 69.7979 10.1534C70.3604 10.1534 70.8604 10.2543 71.2979 10.456C71.7354 10.6548 72.082 10.9276 72.3377 11.2741C72.5962 11.6207 72.7326 12.0142 72.7468 12.4545H71.7241ZM77.3139 12.4545V13.3068H73.9219V12.4545H77.3139ZM74.9105 10.8864H75.9162V17.125C75.9162 17.4091 75.9574 17.6222 76.0398 17.7642C76.125 17.9034 76.233 17.9972 76.3636 18.0455C76.4972 18.0909 76.6378 18.1136 76.7855 18.1136C76.8963 18.1136 76.9872 18.108 77.0582 18.0966C77.1293 18.0824 77.1861 18.071 77.2287 18.0625L77.4332 18.9659C77.3651 18.9915 77.2699 19.017 77.1477 19.0426C77.0256 19.071 76.8707 19.0852 76.6832 19.0852C76.3991 19.0852 76.1207 19.0241 75.848 18.902C75.5781 18.7798 75.3537 18.5938 75.1747 18.3438C74.9986 18.0938 74.9105 17.7784 74.9105 17.3977V10.8864ZM81.4155 19.1364C80.8246 19.1364 80.3061 18.9957 79.8601 18.7145C79.4169 18.4332 79.0703 18.0398 78.8203 17.5341C78.5732 17.0284 78.4496 16.4375 78.4496 15.7614C78.4496 15.0795 78.5732 14.4844 78.8203 13.9759C79.0703 13.4673 79.4169 13.0724 79.8601 12.7912C80.3061 12.5099 80.8246 12.3693 81.4155 12.3693C82.0064 12.3693 82.5234 12.5099 82.9666 12.7912C83.4126 13.0724 83.7592 13.4673 84.0064 13.9759C84.2564 14.4844 84.3814 15.0795 84.3814 15.7614C84.3814 16.4375 84.2564 17.0284 84.0064 17.5341C83.7592 18.0398 83.4126 18.4332 82.9666 18.7145C82.5234 18.9957 82.0064 19.1364 81.4155 19.1364ZM81.4155 18.233C81.8643 18.233 82.2337 18.1179 82.5234 17.8878C82.8132 17.6577 83.0277 17.3551 83.1669 16.9801C83.3061 16.6051 83.3757 16.1989 83.3757 15.7614C83.3757 15.3239 83.3061 14.9162 83.1669 14.5384C83.0277 14.1605 82.8132 13.8551 82.5234 13.6222C82.2337 13.3892 81.8643 13.2727 81.4155 13.2727C80.9666 13.2727 80.5973 13.3892 80.3075 13.6222C80.0178 13.8551 79.8033 14.1605 79.6641 14.5384C79.5249 14.9162 79.4553 15.3239 79.4553 15.7614C79.4553 16.1989 79.5249 16.6051 79.6641 16.9801C79.8033 17.3551 80.0178 17.6577 80.3075 17.8878C80.5973 18.1179 80.9666 18.233 81.4155 18.233ZM85.9165 19V12.4545H86.8881V13.4432H86.9563C87.0756 13.1193 87.2915 12.8565 87.604 12.6548C87.9165 12.4531 88.2688 12.3523 88.6609 12.3523C88.7347 12.3523 88.8271 12.3537 88.9379 12.3565C89.0487 12.3594 89.1325 12.3636 89.1893 12.3693V13.392C89.1552 13.3835 89.0771 13.3707 88.9549 13.3537C88.8356 13.3338 88.7092 13.3239 88.5756 13.3239C88.2575 13.3239 87.9734 13.3906 87.7234 13.5241C87.4762 13.6548 87.2802 13.8366 87.1353 14.0696C86.9933 14.2997 86.9222 14.5625 86.9222 14.858V19H85.9165ZM92.3075 19.1534C91.8928 19.1534 91.5163 19.0753 91.1783 18.919C90.8402 18.7599 90.5717 18.5312 90.3729 18.233C90.174 17.9318 90.0746 17.5682 90.0746 17.142C90.0746 16.767 90.1484 16.4631 90.2962 16.2301C90.4439 15.9943 90.6413 15.8097 90.8885 15.6761C91.1357 15.5426 91.4084 15.4432 91.7067 15.3778C92.0078 15.3097 92.3104 15.2557 92.6143 15.2159C93.0121 15.1648 93.3345 15.1264 93.5817 15.1009C93.8317 15.0724 94.0135 15.0256 94.1271 14.9602C94.2436 14.8949 94.3018 14.7812 94.3018 14.6193V14.5852C94.3018 14.1648 94.1868 13.8381 93.9567 13.6051C93.7294 13.3722 93.3842 13.2557 92.9212 13.2557C92.4411 13.2557 92.0646 13.3608 91.7919 13.571C91.5192 13.7812 91.3274 14.0057 91.2166 14.2443L90.2621 13.9034C90.4325 13.5057 90.6598 13.196 90.9439 12.9744C91.2308 12.75 91.5433 12.5937 91.8814 12.5057C92.2223 12.4148 92.5575 12.3693 92.8871 12.3693C93.0973 12.3693 93.3388 12.3949 93.6115 12.446C93.8871 12.4943 94.1527 12.5952 94.4084 12.7486C94.6669 12.902 94.8814 13.1335 95.0518 13.4432C95.2223 13.7528 95.3075 14.1676 95.3075 14.6875V19H94.3018V18.1136H94.2507C94.1825 18.2557 94.0689 18.4077 93.9098 18.5696C93.7507 18.7315 93.5391 18.8693 93.2749 18.983C93.0107 19.0966 92.6882 19.1534 92.3075 19.1534ZM92.4609 18.25C92.8587 18.25 93.1939 18.1719 93.4666 18.0156C93.7422 17.8594 93.9496 17.6577 94.0888 17.4105C94.2308 17.1634 94.3018 16.9034 94.3018 16.6307V15.7102C94.2592 15.7614 94.1655 15.8082 94.0206 15.8509C93.8786 15.8906 93.7138 15.9261 93.5263 15.9574C93.3416 15.9858 93.1612 16.0114 92.9851 16.0341C92.8118 16.054 92.6712 16.071 92.5632 16.0852C92.3018 16.1193 92.0575 16.1747 91.8303 16.2514C91.6058 16.3253 91.424 16.4375 91.2848 16.5881C91.1484 16.7358 91.0803 16.9375 91.0803 17.1932C91.0803 17.5426 91.2095 17.8068 91.468 17.9858C91.7294 18.1619 92.0604 18.25 92.4609 18.25ZM99.7852 21.5909C99.2994 21.5909 98.8817 21.5284 98.5323 21.4034C98.1829 21.2812 97.8917 21.1193 97.6587 20.9176C97.4286 20.7188 97.2454 20.5057 97.109 20.2784L97.9102 19.7159C98.0011 19.8352 98.1161 19.9716 98.2553 20.125C98.3945 20.2812 98.5849 20.4162 98.8263 20.5298C99.0707 20.6463 99.3903 20.7045 99.7852 20.7045C100.314 20.7045 100.75 20.5767 101.093 20.321C101.437 20.0653 101.609 19.6648 101.609 19.1193V17.7898H101.524C101.45 17.9091 101.345 18.0568 101.208 18.233C101.075 18.4062 100.882 18.5611 100.629 18.6974C100.379 18.831 100.041 18.8977 99.6147 18.8977C99.0863 18.8977 98.6119 18.7727 98.1914 18.5227C97.7738 18.2727 97.4428 17.9091 97.1985 17.4318C96.957 16.9545 96.8363 16.375 96.8363 15.6932C96.8363 15.0227 96.9542 14.4389 97.19 13.9418C97.4258 13.4418 97.7539 13.0554 98.1744 12.7827C98.5948 12.5071 99.0806 12.3693 99.6317 12.3693C100.058 12.3693 100.396 12.4403 100.646 12.5824C100.899 12.7216 101.092 12.8807 101.225 13.0597C101.362 13.2358 101.467 13.3807 101.541 13.4943H101.643V12.4545H102.615V19.1875C102.615 19.75 102.487 20.2074 102.231 20.5597C101.978 20.9148 101.637 21.1747 101.208 21.3395C100.782 21.5071 100.308 21.5909 99.7852 21.5909ZM99.7511 17.9943C100.154 17.9943 100.495 17.902 100.774 17.7173C101.052 17.5327 101.264 17.267 101.409 16.9205C101.554 16.5739 101.626 16.1591 101.626 15.6761C101.626 15.2045 101.555 14.7884 101.413 14.4276C101.271 14.0668 101.061 13.7841 100.782 13.5795C100.504 13.375 100.16 13.2727 99.7511 13.2727C99.3249 13.2727 98.9698 13.3807 98.6857 13.5966C98.4045 13.8125 98.1928 14.1023 98.0508 14.4659C97.9116 14.8295 97.842 15.233 97.842 15.6761C97.842 16.1307 97.913 16.5327 98.055 16.8821C98.1999 17.2287 98.413 17.5014 98.6942 17.7003C98.9783 17.8963 99.3306 17.9943 99.7511 17.9943ZM107.2 19.1364C106.569 19.1364 106.025 18.9972 105.568 18.7188C105.113 18.4375 104.762 18.0455 104.515 17.5426C104.271 17.0369 104.149 16.4489 104.149 15.7784C104.149 15.108 104.271 14.517 104.515 14.0057C104.762 13.4915 105.106 13.0909 105.547 12.804C105.99 12.5142 106.507 12.3693 107.098 12.3693C107.439 12.3693 107.775 12.4261 108.108 12.5398C108.44 12.6534 108.743 12.8381 109.015 13.0938C109.288 13.3466 109.505 13.6818 109.667 14.0994C109.829 14.517 109.91 15.0312 109.91 15.642V16.0682H104.865V15.1989H108.887C108.887 14.8295 108.814 14.5 108.666 14.2102C108.521 13.9205 108.314 13.6918 108.044 13.5241C107.777 13.3565 107.461 13.2727 107.098 13.2727C106.697 13.2727 106.35 13.3722 106.058 13.571C105.768 13.767 105.545 14.0227 105.389 14.3381C105.233 14.6534 105.154 14.9915 105.154 15.3523V15.9318C105.154 16.4261 105.24 16.8452 105.41 17.1889C105.583 17.5298 105.824 17.7898 106.13 17.9688C106.437 18.1449 106.794 18.233 107.2 18.233C107.464 18.233 107.703 18.196 107.916 18.1222C108.132 18.0455 108.318 17.9318 108.474 17.7812C108.63 17.6278 108.751 17.4375 108.836 17.2102L109.808 17.483C109.706 17.8125 109.534 18.1023 109.292 18.3523C109.051 18.5994 108.752 18.7926 108.397 18.9318C108.042 19.0682 107.643 19.1364 107.2 19.1364Z"
                fill="white"
              />
              <defs>
                <clipPath id="clip0_5_8">
                  <rect width="27.2" height="27.18" fill="white" />
                </clipPath>
              </defs>
            </svg>